<?xml version="1.0" encoding="UTF-8"?>
<svg id="Layer_2" data-name="Layer 2" xmlns="http://www.w3.org/2000/svg" viewBox="0 0 102.36 95.85">
  <defs>
    <style>
      .cls-1 {
        fill: #030026;
        stroke-width: 0px;
      }
    </style>
  </defs>
  <g id="Layer_1-2" data-name="Layer 1">
    <path class="cls-1" d="m90.36,9.86h-6.32c0-5.42-4.44-9.86-9.86-9.86s-9.86,4.44-9.86,9.86h0s-22.36,0-22.36,0h0c0-5.42-4.44-9.86-9.86-9.86s-9.86,4.44-9.86,9.86h0s-10.24,0-10.24,0C5.4,9.86,0,15.26,0,21.86v61.99c0,6.6,5.4,12,12,12h78.36c6.6,0,12-5.4,12-12V21.86c0-6.6-5.4-12-12-12ZM15.31,34.4c0-1.01.82-1.83,1.83-1.83h13.53c1.01,0,1.83.82,1.83,1.83v13.53c0,1.01-.82,1.83-1.83,1.83h-13.53c-1.01,0-1.83-.82-1.83-1.83v-13.53Zm17.23,39.44c0,1.01-.82,1.83-1.83,1.83h-13.53c-1.01,0-1.83-.82-1.83-1.83v-13.53c0-1.01.82-1.83,1.83-1.83h13.53c1.01,0,1.83.82,1.83,1.83v13.53Zm11.72-39.44c0-1.01.82-1.83,1.83-1.83h13.53c1.01,0,1.83.82,1.83,1.83v13.53c0,1.01-.82,1.83-1.83,1.83h-13.53c-1.01,0-1.83-.82-1.83-1.83v-13.53Zm17.23,39.44c0,1.01-.82,1.83-1.83,1.83h-13.53c-1.01,0-1.83-.82-1.83-1.83v-13.53c0-1.01.82-1.83,1.83-1.83h13.53c1.01,0,1.83.82,1.83,1.83v13.53Zm11.78-39.44c0-1.01.82-1.83,1.83-1.83h13.53c1.01,0,1.83.82,1.83,1.83v13.53c0,1.01-.82,1.83-1.83,1.83h-13.53c-1.01,0-1.83-.82-1.83-1.83v-13.53Zm17.23,39.44c0,1.01-.82,1.83-1.83,1.83h-13.53c-1.01,0-1.83-.82-1.83-1.83v-13.53c0-1.01.82-1.83,1.83-1.83h13.53c1.01,0,1.83.82,1.83,1.83v13.53Z"/>
  </g>
</svg>