<?xml version="1.0" encoding="UTF-8"?>
<svg id="Layer_2" data-name="Layer 2" xmlns="http://www.w3.org/2000/svg" viewBox="0 0 148.13 102.36">
  <defs>
    <style>
      .cls-1 {
        fill: #030026;
        fill-rule: evenodd;
        stroke-width: 0px;
      }
    </style>
  </defs>
  <g id="Layer_1-2" data-name="Layer 1">
    <path class="cls-1" d="m14.03,0C6.29,0,0,6.28,0,14.03v74.31c0,7.75,6.29,14.03,14.03,14.03h68.53c36.22,0,65.58-29.36,65.58-65.58V13.65c0-7.54-6.11-13.65-13.65-13.65H14.03Zm64.42,74.13c0,1.6-1.29,2.89-2.89,2.89h-5.91c-1.6,0-2.89-1.29-2.89-2.89v-26.71c0-1.6-1.34-2.76-2.93-2.78-1.71-.02-3.03-1.53-2.83-3.23l.35-2.88c.17-1.45,1.41-2.55,2.87-2.55h11.34c1.6,0,2.89,1.29,2.89,2.89v35.26Zm.09-48.57c0,1.6-1.29,2.89-2.89,2.89h-6.95c-1.6,0-2.89-1.29-2.89-2.89v-3.4c0-1.6,1.29-2.89,2.89-2.89h6.95c1.6,0,2.89,1.29,2.89,2.89v3.4Z"/>
  </g>
</svg>