<?xml version="1.0" encoding="UTF-8"?>
<svg id="Layer_2" data-name="Layer 2" xmlns="http://www.w3.org/2000/svg" viewBox="0 0 168.15 115.4">
  <defs>
    <style>
      .cls-1 {
        fill: #030026;
        stroke-width: 0px;
      }
    </style>
  </defs>
  <g id="Layer_1-2" data-name="Layer 1">
    <g>
      <path class="cls-1" d="m89.81,30.72c-.56-1.07-1.28-2.05-2.12-2.9-1.16-1.17-2.56-2.12-4.11-2.73-1.19-.49-2.48-.78-3.84-.86-.22,0-.46-.02-.69-.02H12.12c-6.69,0-12.12,5.43-12.12,12.12v66.93c0,6.7,5.43,12.13,12.12,12.13h66.93c6.7,0,12.13-5.43,12.13-12.13V36.33c0-2.03-.5-3.93-1.38-5.61Zm-43.88,7.33h2.2c.34,0,.64.23.71.58l1.08,4.95.18.8c.17.73,1.2.77,1.42.05l1.23-4.14c.02-.07.03-.14.03-.2v-1.3c0-.41.32-.73.72-.73h1.82c.32,0,.61.21.7.53l1.67,5.86c.2.72,1.24.69,1.42-.04l1.32-5.78c.08-.33.37-.57.71-.57h2.21c.47,0,.81.44.7.89l-3.15,13.63c-.07.33-.37.57-.7.57h-2.37c-.32,0-.61-.21-.69-.53l-1.71-5.87c-.2-.69-1.18-.7-1.4,0l-1.83,5.89c-.1.3-.37.52-.69.52h-2.38c-.33,0-.62-.23-.7-.57l-3.17-13.62c-.11-.46.23-.9.7-.9Zm-1.03,26.17h16.56c-.76-1.54-1.19-3.28-1.19-5.11v-1.42c0-5.28,3.54-9.78,8.37-11.22-.68-.24-1.25-.51-1.7-.79-.61-.38-1.05-.85-1.32-1.4s-.4-1.21-.4-2.01c0-1.43.52-2.54,1.55-3.3,1.02-.77,2.55-1.15,4.57-1.15.87,0,1.73.07,2.55.2.57.1,1.05.2,1.47.3.32.08.55.37.55.7v1.67c0,.49-.47.84-.94.69-.36-.11-.72-.2-1.09-.26-.67-.12-1.34-.19-1.98-.19-.84,0-1.52.08-2.05.23-.52.16-.78.52-.78,1.08,0,.32.1.59.28.78s.51.37.97.53c.47.16,1.09.34,1.89.57,1.23.32,2.18.72,2.83,1.18.42.29.77.62,1.02.99,5.17,1.21,9.05,5.88,9.05,11.4v1.42c0,3.99-2.02,7.52-5.08,9.65.2.21.3.49.3.78,0,.66-.55,1.22-1.21,1.22h-34.23c-.67,0-1.22-.56-1.22-1.22s.55-1.21,1.22-1.21h19.89c-.64-.5-1.23-1.06-1.75-1.68h-18.14c-.67,0-1.22-.55-1.22-1.21s.55-1.22,1.22-1.22Zm34.23,22.94h-34.23c-.67,0-1.22-.55-1.22-1.21s.55-1.22,1.22-1.22h34.23c.66,0,1.21.55,1.21,1.22s-.55,1.21-1.21,1.21Zm1.21,2.89c0,.66-.55,1.21-1.21,1.21h-34.23c-.67,0-1.22-.55-1.22-1.21s.55-1.22,1.22-1.22h34.23c.66,0,1.21.55,1.21,1.22Zm-1.21-6.99h-34.23c-.67,0-1.22-.55-1.22-1.22s.55-1.21,1.22-1.21h34.23c.66,0,1.21.55,1.21,1.21s-.55,1.22-1.21,1.22Zm0-4.11h-34.23c-.67,0-1.22-.55-1.22-1.21s.55-1.22,1.22-1.22h34.23c.66,0,1.21.55,1.21,1.22s-.55,1.21-1.21,1.21Zm0-4.1h-34.23c-.67,0-1.22-.55-1.22-1.22s.55-1.21,1.22-1.21h34.23c.66,0,1.21.55,1.21,1.21s-.55,1.22-1.21,1.22ZM16.72,38.78c0-.41.32-.73.73-.73h2.13c.23,0,.46.12.6.3l4.87,6.86c.41.58,1.33.28,1.33-.43v-6c0-.41.32-.73.73-.73h2.33c.4,0,.73.32.73.73v13.62c0,.4-.33.73-.73.73h-2.16c-.23,0-.45-.12-.59-.31l-4.88-6.83c-.41-.58-1.33-.28-1.33.42v5.99c0,.4-.32.73-.72.73h-2.31c-.41,0-.73-.33-.73-.73v-13.62Zm17.97,41.72c0,6.44-5.27,11.71-11.71,11.71h-1.42c-6.44,0-11.71-5.27-11.71-11.71v-1.42c0-6.44,5.27-11.71,11.71-11.71h1.42c6.44,0,11.71,5.27,11.71,11.71v1.42Zm8.27-27.37h-9.67c-.4,0-.73-.33-.73-.73v-13.62c0-.41.33-.73.73-.73h9.67c.4,0,.72.32.72.73v1.44c0,.4-.32.73-.72.73h-5.9c-.4,0-.72.32-.72.72v1.71c0,.4.32.73.72.73h5.04c.4,0,.73.32.73.72v1.49c0,.41-.33.73-.73.73h-5.04c-.4,0-.72.32-.72.73v1.7c0,.41.32.73.72.73h5.9c.4,0,.72.32.72.73v1.44c0,.4-.32.73-.72.73Zm36.17,42.23h-34.23c-.67,0-1.22-.55-1.22-1.22s.55-1.21,1.22-1.21h34.23c.66,0,1.21.55,1.21,1.21s-.55,1.22-1.21,1.22Z"/>
      <path class="cls-1" d="m85.11,57.69v1.42c0,3.99-2.02,7.52-5.08,9.65-.2-.26-.54-.43-.91-.43h-14.34c-.64-.5-1.23-1.06-1.75-1.68h16.08c.66,0,1.21-.55,1.21-1.21s-.55-1.22-1.21-1.22h-17.66c-.76-1.54-1.19-3.28-1.19-5.11v-1.42c0-5.28,3.54-9.78,8.37-11.22.23.09.49.18.76.25.87.25,1.56.47,2.07.64s.88.39,1.1.62c.22.23.34.55.34.94,0,.58-.23.95-.69,1.12-.46.17-1.16.25-2.1.25-.75,0-1.54-.09-2.38-.28-.47-.1-.91-.22-1.34-.36-.47-.16-.95.2-.95.68v1.67c0,.3.18.58.46.68.52.19,1.11.34,1.79.46.86.15,1.8.22,2.79.22,2.13,0,3.71-.41,4.73-1.23,1.03-.82,1.55-1.89,1.55-3.22,0-.75-.13-1.42-.38-2.03-.09-.21-.2-.42-.33-.61,5.17,1.21,9.05,5.88,9.05,11.4Z"/>
      <path class="cls-1" d="m156.02,0h-66.93c-6.7,0-12.13,5.43-12.13,12.13v9.7h5.51c.23,0,.47,0,.69.02,1.36.08,2.64.37,3.84.86,1.49.59,2.82,1.49,3.96,2.59v-10.17c0-.4.32-.72.72-.72h2.13c.23,0,.46.11.6.3l4.88,6.85c.41.58,1.32.29,1.32-.42v-6.01c0-.4.33-.72.73-.72h2.34c.4,0,.72.32.72.72v13.62c0,.41-.32.73-.72.73h-2.16c-.23,0-.46-.12-.6-.3l-4.43-6.21-.45-.63c-.41-.58-1.32-.28-1.32.43v5.98c0,.41-.32.73-.73.73h-.24c.55,1.38.86,2.88.86,4.46v11.67c.35-.14.71-.28,1.08-.39,1.06-.32,2.18-.49,3.34-.49h1.42c.92,0,1.81.11,2.66.31,5.17,1.21,9.05,5.88,9.05,11.4v1.42c0,3.99-2.02,7.52-5.08,9.65-1.58,1.08-3.44,1.8-5.44,2-.39.04-.79.06-1.19.06h-1.42c-.4,0-.8-.02-1.19-.06-1.13-.12-2.21-.4-3.22-.81v22.48h61.42c6.69,0,12.13-5.44,12.13-12.13V12.13c0-6.7-5.44-12.13-12.13-12.13Zm-15.02,15.32c1.03-.76,2.56-1.14,4.57-1.14.88,0,1.73.06,2.56.2.56.09,1.05.19,1.46.29.33.09.55.38.55.71v1.67c0,.48-.46.83-.93.69-.36-.11-.73-.2-1.09-.26-.68-.13-1.34-.19-1.98-.19-.84,0-1.53.08-2.05.23-.53.16-.79.52-.79,1.07,0,.33.1.6.28.79.19.2.52.37.98.53.46.16,1.09.34,1.88.56,1.24.33,2.18.72,2.84,1.18.65.47,1.1,1,1.36,1.6.24.6.37,1.27.37,2.02,0,1.33-.52,2.4-1.54,3.22-1.03.82-2.62,1.23-4.73,1.23-1,0-1.93-.07-2.8-.22-.66-.11-1.26-.26-1.78-.46-.28-.1-.46-.38-.46-.67v-1.67c0-.5.48-.85.95-.69.42.15.87.26,1.34.37.83.19,1.63.28,2.38.28.94,0,1.63-.09,2.09-.26.47-.17.69-.55.69-1.12,0-.39-.11-.7-.34-.94-.22-.23-.59-.44-1.1-.61-.5-.19-1.19-.4-2.07-.64-1.02-.31-1.84-.66-2.46-1.04-.6-.38-1.04-.85-1.31-1.4s-.4-1.22-.4-2.02c0-1.43.52-2.53,1.54-3.3Zm-23.09,1.26c0,.41-.32.73-.73.73h-5.89c-.4,0-.73.33-.73.73v1.7c0,.41.33.73.73.73h5.04c.4,0,.72.33.72.73v1.49c0,.4-.32.73-.72.73h-5.04c-.29,0-.56.18-.66.43-.05.09-.07.19-.07.29v1.71c0,.4.33.73.73.73h5.89c.41,0,.73.32.73.72v1.44c0,.41-.32.73-.73.73h-9.66c-.41,0-.73-.32-.73-.73v-13.62c0-.4.32-.72.73-.72h9.66c.41,0,.73.32.73.72v1.44Zm2.25-2.17h2.2c.34,0,.63.23.71.57l1.26,5.75c.16.74,1.19.77,1.41.05l1.23-4.14c.02-.07.03-.14.03-.2v-1.3c0-.4.33-.72.73-.72h1.82c.32,0,.6.21.69.53l1.68,5.86c.2.72,1.24.69,1.41-.04l1.33-5.78c.07-.33.37-.57.7-.57h2.21c.47,0,.82.43.71.89l-3.15,13.62c-.08.33-.37.57-.71.57h-2.36c-.32,0-.61-.21-.7-.53l-1.7-5.86c-.2-.7-1.18-.71-1.4-.02l-1.83,5.89c-.1.3-.38.51-.7.51h-2.37c-.34,0-.63-.23-.71-.57l-3.17-13.62c-.11-.46.24-.89.71-.89Zm36.42,58.32h-34.23c-.67,0-1.22-.55-1.22-1.21s.55-1.22,1.22-1.22h34.23c.66,0,1.21.55,1.21,1.22s-.55,1.21-1.21,1.21Zm0-4.1h-34.23c-.67,0-1.22-.55-1.22-1.22s.55-1.21,1.22-1.21h34.23c.66,0,1.21.55,1.21,1.21s-.55,1.22-1.21,1.22Zm0-4.1h-34.23c-.67,0-1.22-.55-1.22-1.22s.55-1.21,1.22-1.21h34.23c.66,0,1.21.55,1.21,1.21s-.55,1.22-1.21,1.22Zm0-4.11h-34.23c-.67,0-1.22-.55-1.22-1.21s.55-1.22,1.22-1.22h34.23c.66,0,1.21.55,1.21,1.22s-.55,1.21-1.21,1.21Zm0-4.1h-34.23c-.67,0-1.22-.55-1.22-1.22s.55-1.21,1.22-1.21h34.23c.66,0,1.21.55,1.21,1.21s-.55,1.22-1.21,1.22Zm0-4.11h-34.23c-.67,0-1.22-.55-1.22-1.21s.55-1.22,1.22-1.22h34.23c.66,0,1.21.55,1.21,1.22s-.55,1.21-1.21,1.21Zm0-4.1h-34.23c-.67,0-1.22-.55-1.22-1.22s.55-1.21,1.22-1.21h34.23c.66,0,1.21.55,1.21,1.21s-.55,1.22-1.21,1.22Zm0-4.1h-34.23c-.67,0-1.22-.55-1.22-1.22s.55-1.21,1.22-1.21h34.23c.66,0,1.21.55,1.21,1.21s-.55,1.22-1.21,1.22Z"/>
    </g>
  </g>
</svg>