<?xml version="1.0" encoding="UTF-8"?>
<svg id="Layer_2" data-name="Layer 2" xmlns="http://www.w3.org/2000/svg" viewBox="0 0 161.61 116.02">
  <defs>
    <style>
      .cls-1 {
        fill: #030026;
        fill-rule: evenodd;
        stroke-width: 0px;
      }
    </style>
  </defs>
  <g id="Layer_1-2" data-name="Layer 1">
    <g>
      <path class="cls-1" d="m138.04,98.14v4.81c0,7.22-5.86,13.07-13.08,13.07H13.07c-7.22,0-13.07-5.85-13.07-13.07V33.7c0-7.21,5.85-13.07,13.07-13.07h7.56v64.44c0,7.22,5.86,13.07,13.07,13.07h104.34Z"/>
      <path class="cls-1" d="m148.54,0H36.64c-7.21,0-13.07,5.85-13.07,13.07v69.25c0,7.22,5.86,13.07,13.07,13.07h111.9c7.22,0,13.07-5.85,13.07-13.07V13.07c0-7.22-5.85-13.07-13.07-13.07ZM60.27,32.56c2.53,0,4.59,2.05,4.59,4.59s-2.05,4.59-4.59,4.59-4.59-2.05-4.59-4.59,2.05-4.59,4.59-4.59Zm71.24,37.61H44.44c-2.51,0-3.8-3-2.07-4.82l8.65-9.13c1.25-1.32,3.4-1.15,4.43.35l7.22,10.5c1.07,1.56,3.33,1.66,4.54.22l34.41-41.05c1.2-1.44,3.44-1.34,4.52.19l27.7,39.24c1.34,1.89-.02,4.5-2.33,4.5Z"/>
    </g>
  </g>
</svg>