<?xml version="1.0" encoding="UTF-8"?>
<svg id="Layer_2" data-name="Layer 2" xmlns="http://www.w3.org/2000/svg" viewBox="0 0 151.3 114.07">
  <defs>
    <style>
      .cls-1 {
        fill: #030026;
        fill-rule: evenodd;
        stroke-width: 0px;
      }
    </style>
  </defs>
  <g id="Layer_1-2" data-name="Layer 1">
    <g>
      <path class="cls-1" d="m100.58,24.83c0,4.97-1.46,9.61-3.98,13.49-4.42,6.83-12.11,11.34-20.84,11.34s-16.42-4.52-20.84-11.34c-2.52-3.88-3.98-8.52-3.98-13.49,0-13.7,11.11-24.83,24.83-24.83s24.83,11.12,24.83,24.83Z"/>
      <g>
        <path class="cls-1" d="m40.24,31.84c0,3.01-.89,5.82-2.41,8.17-2.68,4.14-7.34,6.87-12.63,6.87s-9.95-2.74-12.63-6.87c-1.53-2.35-2.41-5.16-2.41-8.17,0-8.3,6.73-15.04,15.04-15.04s15.04,6.74,15.04,15.04Z"/>
        <path class="cls-1" d="m41.24,79.11v4.8c-1.26,1.24-2.97,2-4.86,2H13.56c-3.81,0-6.92-3.11-6.92-6.92v-14.26c-4.01-2.16-6.63-5.78-6.63-9.87,0-5.56,4.84-10.24,11.4-11.59,2.93,4.52,8.02,7.51,13.8,7.51s10.87-2.99,13.8-7.51c1.87.38,3.59,1.04,5.11,1.91-8.2,3.27-13.82,9.94-13.82,17.63,0,6.76,4.34,12.73,10.95,16.29Z"/>
      </g>
      <path class="cls-1" d="m54.26,54.87c0,4.25-2.82,7.99-7.09,10.11v14.02c0,1.92-.79,3.66-2.07,4.92v-4.8c-6.61-3.57-10.95-9.54-10.95-16.29,0-7.7,5.61-14.37,13.82-17.63,3.81,2.18,6.29,5.71,6.29,9.68Z"/>
      <path class="cls-1" d="m117.34,62.82c0,7.03-4.67,13.18-11.71,16.69v23.13c0,6.29-5.14,11.43-11.43,11.43h-37.67c-6.29,0-11.43-5.14-11.43-11.43v-18.72c1.27-1.26,2.07-3,2.07-4.92v-14.02c4.26-2.13,7.09-5.86,7.09-10.11,0-3.98-2.48-7.51-6.29-9.68,1.58-.64,3.25-1.14,5-1.5,4.83,7.46,13.23,12.4,22.78,12.4s17.94-4.93,22.77-12.4c10.82,2.23,18.81,9.96,18.81,19.13Z"/>
      <path class="cls-1" d="m96.59,38.31c-4.42,6.83-12.11,11.34-20.84,11.34s-16.42-4.52-20.84-11.34c1.88-.38,3.86-.59,5.89-.59,5.66,0,10.84,1.6,14.85,4.25h.18c4.02-2.65,9.21-4.25,14.86-4.25,2.04,0,4.01.21,5.89.59Z"/>
      <g>
        <path class="cls-1" d="m111.06,31.84c0,3.01.89,5.82,2.41,8.17,2.68,4.14,7.34,6.87,12.63,6.87s9.95-2.74,12.63-6.87c1.53-2.35,2.41-5.16,2.41-8.17,0-8.3-6.73-15.04-15.04-15.04s-15.04,6.74-15.04,15.04Z"/>
        <path class="cls-1" d="m110.06,79.11v4.8c1.26,1.24,2.97,2,4.86,2h22.82c3.81,0,6.92-3.11,6.92-6.92v-14.26c4.01-2.16,6.63-5.78,6.63-9.87,0-5.56-4.84-10.24-11.4-11.59-2.93,4.52-8.02,7.51-13.8,7.51s-10.87-2.99-13.8-7.51c-1.87.38-3.59,1.04-5.11,1.91,8.2,3.27,13.82,9.94,13.82,17.63,0,6.76-4.34,12.73-10.95,16.29Z"/>
      </g>
    </g>
  </g>
</svg>