<?xml version="1.0" encoding="UTF-8"?>
<svg id="Layer_2" data-name="Layer 2" xmlns="http://www.w3.org/2000/svg" viewBox="0 0 132.15 164.94">
  <defs>
    <style>
      .cls-1 {
        fill: #fff;
        fill-rule: evenodd;
        stroke-width: 0px;
      }
    </style>
  </defs>
  <g id="Layer_1-2" data-name="Layer 1">
    <path class="cls-1" d="m119.2,26.18c-13.39-10.42-29.93-16.97-47.95-18.03V0h-10.34v8.15c-18.01,1.06-34.56,7.61-47.95,18.03-1.55,1.21-.66,3.71,1.3,3.71h103.64c1.97,0,2.86-2.5,1.3-3.71Z"/>
    <path class="cls-1" d="m128.41,33.48H3.75c-2.06,0-3.75,1.69-3.75,3.75s1.69,3.75,3.75,3.75h11.22c.02.13.03.26.06.39l24.74,118.37c.63,3.03,3.31,5.21,6.41,5.21h6.28l-7.65-72.79c-.22-2.13,1.34-4.06,3.47-4.28,2.13-.22,4.06,1.34,4.28,3.47l7.73,73.61h11.72l7.73-73.61c.22-2.13,2.15-3.69,4.28-3.47s3.69,2.15,3.47,4.28l-7.65,72.79h6.11c3.1,0,5.77-2.17,6.41-5.21l24.75-118.37c.03-.13.04-.26.06-.39h11.22c2.06,0,3.75-1.69,3.75-3.75s-1.69-3.75-3.75-3.75Z"/>
  </g>
</svg>