<?xml version="1.0" encoding="UTF-8"?>
<svg id="Layer_2" data-name="Layer 2" xmlns="http://www.w3.org/2000/svg" viewBox="0 0 1244.58 1701.45">
  <defs>
    <style>
      .cls-1 {
        fill: #1897d4;
      }

      .cls-1, .cls-2, .cls-3, .cls-4, .cls-5, .cls-6, .cls-7, .cls-8, .cls-9, .cls-10, .cls-11 {
        stroke-width: 0px;
      }

      .cls-1, .cls-2, .cls-3, .cls-4, .cls-5, .cls-6, .cls-7, .cls-9, .cls-10, .cls-11 {
        fill-rule: evenodd;
      }

      .cls-2 {
        fill: #50c7eb;
      }

      .cls-4 {
        fill: #20b4e8;
      }

      .cls-5 {
        fill: #e0e0f0;
      }

      .cls-6 {
        fill: #243e8f;
      }

      .cls-12 {
        opacity: .3;
      }

      .cls-7 {
        fill: #fff;
      }

      .cls-8 {
        fill: #2a317d;
      }

      .cls-9 {
        fill: #9596ca;
      }

      .cls-10 {
        fill: #252667;
      }

      .cls-11 {
        fill: #1d2949;
      }
    </style>
  </defs>
  <g id="Layer_1-2" data-name="Layer 1">
    <g class="cls-12">
      <path class="cls-3" d="m97.16,1044.37s25.72,118.46,179.91,125.18c-13.3,63.73-43.96,127.71-54.1,183.84-3.42,18.37-21.28,119.47-81.59,147.47-60.31,27.87-115.17-112.89-103.89-185.48,0,0,63.6-213.48,59.67-271h0Z"/>
      <path class="cls-3" d="m97.16,1044.37s25.72,118.46,179.91,125.18c-9.63,46.24-28.38,92.49-41.81,135.82-4.18-68.42-17.99-103.51-17.99-103.51-61.32-12.67-102.37-44.09-129.86-80.2,6.71-32.69,10.9-61.07,9.76-77.28h0Z"/>
      <path class="cls-3" d="m1183.32,1044.37s-25.72,118.46-179.91,125.18c13.43,63.73,43.96,127.71,54.23,183.84,3.29,18.37,21.16,119.47,81.59,147.47,60.31,27.87,115.04-112.89,103.89-185.48,0,0-63.73-213.48-59.8-271h0Z"/>
      <path class="cls-3" d="m1183.32,1044.37s-25.72,118.46-179.91,125.18c9.76,46.24,28.51,92.49,41.94,135.82,4.18-68.42,17.86-103.51,17.86-103.51,61.45-12.67,102.5-44.09,129.86-80.2-6.59-32.69-10.9-61.07-9.76-77.28h0Z"/>
      <path class="cls-3" d="m969.71,878.15s189.79-33.95,222.86,112.89c33.07,146.84-126.06,205.12-194.86,186.88,0,0-124.67-226.91-122.14-236.67,2.53-9.76,94.14-63.09,94.14-63.09h0Z"/>
      <path class="cls-3" d="m310.77,878.15s-189.66-33.95-222.73,112.89c-33.07,146.84,126.06,205.12,194.73,186.88,0,0,124.8-226.91,122.26-236.67-2.53-9.76-94.26-63.09-94.26-63.09h0Z"/>
      <path class="cls-3" d="m427.45,904.75s-148.61,44.6-147.6,204.49c.25,28.25,3.42,65.38,10.01,107.19,30.28,193.72,133.03,488.67,350.44,484.99,217.28,3.67,320.16-291.27,350.44-484.99,6.59-41.81,9.76-78.93,9.88-107.19,1.14-159.89-147.47-204.49-147.47-204.49-68.16,56.89-212.85,43.58-212.85,43.58,0,0-144.69,13.3-212.85-43.58h0Z"/>
      <path class="cls-3" d="m392.1,920.46c-22.81,12.54-52.45,33.57-75.51,66.14,28.89,37.38,109.09,99.46,323.71,101.74,214.5-2.28,294.7-64.36,323.71-101.74-23.06-32.56-52.71-53.59-75.51-66.14l-73.1,6.59c-73.1,30.66-175.09,21.28-175.09,21.28,0,0-102.12,9.38-175.09-21.28l-73.1-6.59Z"/>
      <path class="cls-3" d="m640.3,170.55s-387.82,9-441.41,286.08c-53.59,277.08,22.3,560.88,441.41,565.45,418.98-4.56,495-288.36,441.28-565.45-53.59-277.08-441.28-286.08-441.28-286.08h0Z"/>
      <path class="cls-3" d="m473.82,391.76s91.6,38.01,166.48,22.43c74.88,15.58,166.48-22.43,166.48-22.43,58.15-32.31,252.51,14.57,187.76,253.65-64.87,239.2-354.24,231.35-354.24,231.35,0,0-289.37,7.86-354.24-231.35-64.74-239.08,129.61-285.95,187.76-253.65h0Z"/>
      <path class="cls-3" d="m640.3,170.55s-68.67,1.65-152.16,24.07c15.71,49.79,51.19,133.92,113.01,140.25h78.17c61.83-6.33,97.43-90.46,113.14-140.25-83.49-22.43-152.16-24.07-152.16-24.07h0Z"/>
      <path class="cls-3" d="m1054.09,1339.95c1.77,6.08,3.04,10.77,3.55,13.43l.38,2.03c20.52-12.67,70.06-31.67,185.48-37.12-.13-1.01-.25-1.9-.38-2.91,0,0-2.03-6.59-5.19-17.74-53.72.76-134.42,8.11-183.84,42.32h0Z"/>
      <path class="cls-3" d="m1079.05,444.46c26.99,11.53,72.98,36.24,72.98,60.18,0,0,33.19,241.23-73.36,242.37h0c24.83-88.56,22.43-189.92,2.91-290.39-.76-4.18-1.65-8.24-2.53-12.16h0Z"/>
      <path class="cls-3" d="m1156.72,598.78c-1.77,67.78-16.85,147.6-78.04,148.23h0c10.77-38.39,16.47-79.31,17.74-121.5,25.34-7.22,44.98-16.72,60.31-26.73h0Z"/>
      <path class="cls-3" d="m1063.72,446.62s3.42-204.49-159.76-296.22c0,0-101.61,3.42-91.6-70.32,10.01-73.74,116.18-9,119.6,26.23-2.79,15.08,260.36,222.99,145.19,386.04l-13.43-45.74Z"/>
      <path class="cls-3" d="m990.75,1216.42c-.76,4.69-1.52,9.38-2.28,14.19-83.75,34.33-190.04,43.2-190.04,43.2-11.15,177.75-158.12,160.27-158.12,160.27v-9.25c160.9-4.43,148.61-167.62,148.61-167.62,115.04-3.29,201.83-40.8,201.83-40.8h0Z"/>
      <path class="cls-3" d="m838.58,512.37h0c-30.66,0-55.87,25.09-55.87,55.87v96.04c0,30.79,25.21,55.87,55.87,55.87h0c30.79,0,55.87-25.09,55.87-55.87v-96.04c0-30.79-25.09-55.87-55.87-55.87h0Z"/>
      <path class="cls-3" d="m788.16,544.55c-3.42,7.22-5.45,15.2-5.45,23.69v96.04c0,30.79,25.21,55.87,55.87,55.87h0c8.49,0,16.6-1.9,23.82-5.32,3.42-7.22,5.32-15.2,5.32-23.69v-96.04c0-30.79-25.21-55.87-55.87-55.87h0c-8.49,0-16.6,1.9-23.69,5.32h0Z"/>
      <path class="cls-3" d="m226.39,1339.95c-1.77,6.08-3.04,10.77-3.42,13.43l-.38,2.03c-20.65-12.67-70.19-31.67-185.61-37.12.13-1.01.25-1.9.51-2.91,0,0,1.9-6.59,5.07-17.74,53.85.76,134.55,8.11,183.84,42.32h0Z"/>
      <path class="cls-3" d="m201.55,444.46c-26.99,11.53-72.98,36.24-72.98,60.18,0,0-33.32,241.23,73.23,242.37h.13c-24.83-88.56-22.43-189.92-3.04-290.39.76-4.18,1.65-8.24,2.66-12.16h0Z"/>
      <path class="cls-3" d="m123.76,598.78c1.77,67.78,16.98,147.6,78.04,148.23h.13c-10.77-38.39-16.47-79.31-17.86-121.5-25.21-7.22-44.98-16.72-60.31-26.73h0Z"/>
      <path class="cls-3" d="m216.76,446.62s-3.29-204.49,159.76-296.22c0,0,101.74,3.42,91.73-70.32-10.14-73.74-116.31-9-119.6,26.23,2.79,15.08-260.36,222.99-145.32,386.04l13.43-45.74Z"/>
      <path class="cls-3" d="m289.86,1216.42c.63,4.69,1.39,9.38,2.28,14.19,83.75,34.33,190.04,43.2,190.04,43.2,11.15,177.75,158.12,160.27,158.12,160.27v-9.25c-160.9-4.43-148.61-167.62-148.61-167.62-115.17-3.29-201.83-40.8-201.83-40.8h0Z"/>
      <path class="cls-3" d="m293.54,1238.47c34.33,193.21,137.47,466.5,346.77,462.95,209.18,3.55,312.31-269.74,346.77-462.95-33.95,82.35-144.69,306.86-346.77,308.76-202.08-1.9-312.94-226.41-346.77-308.76h0Z"/>
      <path class="cls-3" d="m640.3,1142.18c70.7,0,127.96,57.27,127.96,127.96s-57.27,127.84-127.96,127.84-127.96-57.27-127.96-127.84,57.27-127.96,127.96-127.96h0Z"/>
      <path class="cls-3" d="m640.3,1142.18c61.83,0,113.39,43.84,125.3,102.24-11.91,58.28-63.47,102.24-125.3,102.24s-113.52-43.96-125.43-102.24c11.91-58.41,63.6-102.24,125.43-102.24h0Z"/>
      <path class="cls-3" d="m441.9,512.37h0c30.79,0,55.87,25.09,55.87,55.87v96.04c0,30.79-25.09,55.87-55.87,55.87h0c-30.66,0-55.87-25.09-55.87-55.87v-96.04c0-30.79,25.21-55.87,55.87-55.87h0Z"/>
      <path class="cls-3" d="m492.45,544.55c3.42,7.22,5.32,15.2,5.32,23.69v96.04c0,30.79-25.09,55.87-55.87,55.87h0c-8.49,0-16.47-1.9-23.69-5.32-3.42-7.22-5.32-15.2-5.32-23.69v-96.04c0-30.79,25.09-55.87,55.87-55.87h0c8.49,0,16.47,1.9,23.69,5.32h0Z"/>
      <path class="cls-3" d="m507.27,244.66c19.76,42.57,50.3,85.77,93.88,90.21h78.17c43.71-4.43,74.24-47.64,94.01-90.21-57.14-15.33-107.31-20.9-133.03-22.93-25.85,2.03-75.89,7.6-133.03,22.93h0Z"/>
    </g>
    <path class="cls-5" d="m61.16,998.09s25.72,118.46,179.91,125.18c-13.3,63.73-43.96,127.71-54.1,183.84-3.42,18.37-21.28,119.47-81.59,147.47-60.31,27.87-115.17-112.89-103.89-185.48,0,0,63.6-213.48,59.67-271h0Z"/>
    <path class="cls-9" d="m61.16,998.09s25.72,118.46,179.91,125.18c-9.63,46.24-28.38,92.49-41.81,135.82-4.18-68.42-17.99-103.51-17.99-103.51-61.32-12.67-102.37-44.09-129.86-80.2,6.71-32.69,10.9-61.07,9.76-77.28h0Z"/>
    <path class="cls-5" d="m1147.32,998.09s-25.72,118.46-179.91,125.18c13.43,63.73,43.96,127.71,54.23,183.84,3.29,18.37,21.16,119.47,81.59,147.47,60.31,27.87,115.04-112.89,103.89-185.48,0,0-63.73-213.48-59.8-271h0Z"/>
    <path class="cls-9" d="m1147.32,998.09s-25.72,118.46-179.91,125.18c9.76,46.24,28.51,92.49,41.94,135.82,4.18-68.42,17.86-103.51,17.86-103.51,61.45-12.67,102.5-44.09,129.86-80.2-6.59-32.69-10.9-61.07-9.76-77.28h0Z"/>
    <path class="cls-4" d="m933.71,831.86s189.79-33.95,222.86,112.89c33.07,146.84-126.06,205.12-194.86,186.88,0,0-124.67-226.91-122.14-236.67,2.53-9.76,94.14-63.09,94.14-63.09h0Z"/>
    <path class="cls-4" d="m274.77,831.86s-189.66-33.95-222.73,112.89c-33.07,146.84,126.06,205.12,194.73,186.88,0,0,124.8-226.91,122.26-236.67-2.53-9.76-94.26-63.09-94.26-63.09h0Z"/>
    <path class="cls-5" d="m391.45,858.47s-148.61,44.6-147.6,204.49c.25,28.25,3.42,65.38,10.01,107.19,30.28,193.72,133.03,488.67,350.44,484.99,217.28,3.67,320.16-291.27,350.44-484.99,6.59-41.81,9.76-78.93,9.88-107.19,1.14-159.89-147.47-204.49-147.47-204.49-68.16,56.89-212.85,43.58-212.85,43.58,0,0-144.69,13.3-212.85-43.58h0Z"/>
    <path class="cls-9" d="m356.1,874.18c-22.81,12.54-52.45,33.57-75.51,66.14,28.89,37.38,109.09,99.46,323.71,101.74,214.5-2.28,294.7-64.36,323.71-101.74-23.06-32.56-52.71-53.59-75.51-66.14l-73.1,6.59c-73.1,30.66-175.09,21.28-175.09,21.28,0,0-102.12,9.38-175.09-21.28l-73.1-6.59Z"/>
    <path class="cls-5" d="m604.3,124.26s-387.82,9-441.41,286.08c-53.59,277.08,22.3,560.88,441.41,565.45,418.98-4.56,495-288.36,441.28-565.45-53.59-277.08-441.28-286.08-441.28-286.08h0Z"/>
    <path class="cls-4" d="m604.3,124.26s-68.67,1.65-152.16,24.07c15.71,49.79,51.19,133.92,113.01,140.25h78.17c61.83-6.33,97.43-90.46,113.14-140.25-83.49-22.43-152.16-24.07-152.16-24.07h0Z"/>
    <path class="cls-10" d="m1018.09,1293.67c1.77,6.08,3.04,10.77,3.55,13.43l.38,2.03c20.52-12.67,70.06-31.67,185.48-37.12-.13-1.01-.25-1.9-.38-2.91,0,0-2.03-6.59-5.19-17.74-53.72.76-134.42,8.11-183.84,42.32h0Z"/>
    <path class="cls-4" d="m1043.05,398.18c26.99,11.53,72.98,36.24,72.98,60.18,0,0,33.19,241.23-73.36,242.37h0c24.83-88.56,22.43-189.92,2.91-290.39-.76-4.18-1.65-8.24-2.53-12.16h0Z"/>
    <path class="cls-6" d="m1120.72,552.49c-1.77,67.78-16.85,147.6-78.04,148.23h0c10.77-38.39,16.47-79.31,17.74-121.5,25.34-7.22,44.98-16.72,60.31-26.73h0Z"/>
    <path class="cls-11" d="m1027.72,400.33s3.42-204.49-159.76-296.22c0,0-101.61,3.42-91.6-70.32,10.01-73.74,116.18-9,119.6,26.23-2.79,15.08,260.36,222.99,145.19,386.04l-13.43-45.74Z"/>
    <path class="cls-10" d="m954.75,1170.14c-.76,4.69-1.52,9.38-2.28,14.19-83.75,34.33-190.04,43.2-190.04,43.2-11.15,177.75-158.12,160.27-158.12,160.27v-9.25c160.9-4.43,148.61-167.62,148.61-167.62,115.04-3.29,201.83-40.8,201.83-40.8h0Z"/>
    <path class="cls-10" d="m190.39,1293.67c-1.77,6.08-3.04,10.77-3.42,13.43l-.38,2.03c-20.65-12.67-70.19-31.67-185.61-37.12.13-1.01.25-1.9.51-2.91,0,0,1.9-6.59,5.07-17.74,53.85.76,134.55,8.11,183.84,42.32h0Z"/>
    <path class="cls-4" d="m165.55,398.18c-26.99,11.53-72.98,36.24-72.98,60.18,0,0-33.32,241.23,73.23,242.37h.13c-24.83-88.56-22.43-189.92-3.04-290.39.76-4.18,1.65-8.24,2.66-12.16h0Z"/>
    <path class="cls-6" d="m87.76,552.49c1.77,67.78,16.98,147.6,78.04,148.23h.13c-10.77-38.39-16.47-79.31-17.86-121.5-25.21-7.22-44.98-16.72-60.31-26.73h0Z"/>
    <path class="cls-11" d="m180.76,400.33s-3.29-204.49,159.76-296.22c0,0,101.74,3.42,91.73-70.32-10.14-73.74-116.31-9-119.6,26.23,2.79,15.08-260.36,222.99-145.32,386.04l13.43-45.74Z"/>
    <path class="cls-10" d="m253.86,1170.14c.63,4.69,1.39,9.38,2.28,14.19,83.75,34.33,190.04,43.2,190.04,43.2,11.15,177.75,158.12,160.27,158.12,160.27v-9.25c-160.9-4.43-148.61-167.62-148.61-167.62-115.17-3.29-201.83-40.8-201.83-40.8h0Z"/>
    <path class="cls-9" d="m257.54,1192.18c34.33,193.21,137.47,466.5,346.77,462.95,209.18,3.55,312.31-269.74,346.77-462.95-33.95,82.35-144.69,306.86-346.77,308.76-202.08-1.9-312.94-226.41-346.77-308.76h0Z"/>
    <path class="cls-6" d="m604.3,1095.9c70.7,0,127.96,57.27,127.96,127.96s-57.27,127.84-127.96,127.84-127.96-57.27-127.96-127.84,57.27-127.96,127.96-127.96h0Z"/>
    <path class="cls-1" d="m604.3,1095.9c61.83,0,113.39,43.84,125.3,102.24-11.91,58.28-63.47,102.24-125.3,102.24s-113.52-43.96-125.43-102.24c11.91-58.41,63.6-102.24,125.43-102.24h0Z"/>
    <path class="cls-6" d="m471.27,198.38c19.76,42.57,50.3,85.77,93.88,90.21h78.17c43.71-4.43,74.24-47.64,94.01-90.21-57.14-15.33-107.31-20.9-133.03-22.93-25.85,2.03-75.89,7.6-133.03,22.93h0Z"/>
    <rect class="cls-8" x="241.06" y="446.81" width="726.35" height="246.34" rx="54.46" ry="54.46"/>
    <path class="cls-7" d="m405.9,466.09h0c30.79,0,55.87,25.09,55.87,55.87v96.04c0,30.79-25.09,55.87-55.87,55.87h0c-30.66,0-55.87-25.09-55.87-55.87v-96.04c0-30.79,25.21-55.87,55.87-55.87h0Z"/>
    <path class="cls-7" d="m802.58,466.09h0c-30.66,0-55.87,25.09-55.87,55.87v96.04c0,30.79,25.21,55.87,55.87,55.87h0c30.79,0,55.87-25.09,55.87-55.87v-96.04c0-30.79-25.09-55.87-55.87-55.87h0Z"/>
    <path class="cls-2" d="m752.16,498.27c-3.42,7.22-5.45,15.2-5.45,23.69v96.04c0,30.79,25.21,55.87,55.87,55.87h0c8.49,0,16.6-1.9,23.82-5.32,3.42-7.22,5.32-15.2,5.32-23.69v-96.04c0-30.79-25.21-55.87-55.87-55.87h0c-8.49,0-16.6,1.9-23.69,5.32h0Z"/>
    <path class="cls-2" d="m456.45,498.27c3.42,7.22,5.32,15.2,5.32,23.69v96.04c0,30.79-25.09,55.87-55.87,55.87h0c-8.49,0-16.47-1.9-23.69-5.32-3.42-7.22-5.32-15.2-5.32-23.69v-96.04c0-30.79,25.09-55.87,55.87-55.87h0c8.49,0,16.47,1.9,23.69,5.32h0Z"/>
  </g>
</svg>