<?xml version="1.0" encoding="UTF-8"?>
<svg id="Layer_2" data-name="Layer 2" xmlns="http://www.w3.org/2000/svg" viewBox="0 0 543.34 849.49">
  <defs>
    <style>
      .cls-1, .cls-2, .cls-3, .cls-4, .cls-5, .cls-6, .cls-7 {
        stroke-width: 0px;
      }

      .cls-1, .cls-2, .cls-3, .cls-5, .cls-6, .cls-7 {
        fill-rule: evenodd;
      }

      .cls-1, .cls-4 {
        fill: #b2925f;
      }

      .cls-2 {
        fill: #3b2314;
      }

      .cls-5 {
        fill: #e0e0f0;
      }

      .cls-6 {
        fill: #fff;
      }

      .cls-7 {
        fill: #9596ca;
      }
    </style>
  </defs>
  <g id="Layer_1-2" data-name="Layer 1">
    <g>
      <path class="cls-3" d="m204.96,204.86s47.9,19.88,87.06,11.73c39.15,8.15,87.06-11.73,87.06-11.73,30.41-16.89,132.04,7.62,98.19,132.64-33.92,125.08-185.24,120.98-185.24,120.98,0,0-151.32,4.11-185.24-120.98-33.85-125.02,67.78-149.53,98.19-132.64h0Z"/>
      <path class="cls-3" d="m292.01,89.18s-35.91.86-79.57,12.59c8.22,26.04,26.77,70.03,59.1,73.34h40.88c32.33-3.31,50.95-47.3,59.16-73.34-43.66-11.73-79.57-12.59-79.57-12.59h0Z"/>
      <path class="cls-3" d="m395.7,267.93h0c-16.03,0-29.22,13.12-29.22,29.22v50.22c0,16.1,13.18,29.22,29.22,29.22h0c16.1,0,29.22-13.12,29.22-29.22v-50.22c0-16.1-13.12-29.22-29.22-29.22h0Z"/>
      <path class="cls-3" d="m369.33,284.76c-1.79,3.78-2.85,7.95-2.85,12.39v50.22c0,16.1,13.18,29.22,29.22,29.22h0c4.44,0,8.68-.99,12.46-2.78,1.79-3.78,2.78-7.95,2.78-12.39v-50.22c0-16.1-13.18-29.22-29.22-29.22h0c-4.44,0-8.68.99-12.39,2.78h0Z"/>
      <path class="cls-3" d="m188.26,267.93h0c16.1,0,29.22,13.12,29.22,29.22v50.22c0,16.1-13.12,29.22-29.22,29.22h0c-16.03,0-29.22-13.12-29.22-29.22v-50.22c0-16.1,13.18-29.22,29.22-29.22h0Z"/>
      <path class="cls-3" d="m214.7,284.76c1.79,3.78,2.78,7.95,2.78,12.39v50.22c0,16.1-13.12,29.22-29.22,29.22h0c-4.44,0-8.61-.99-12.39-2.78-1.79-3.78-2.78-7.95-2.78-12.39v-50.22c0-16.1,13.12-29.22,29.22-29.22h0c4.44,0,8.61.99,12.39,2.78h0Z"/>
      <path class="cls-3" d="m222.45,127.94c10.34,22.26,26.3,44.85,49.09,47.17h40.88c22.86-2.32,38.82-24.91,49.16-47.17-29.88-8.02-56.12-10.93-69.56-11.99-13.52,1.06-39.68,3.98-69.56,11.99h0Z"/>
      <path class="cls-5" d="m273.19,64.98s-202.8,4.7-230.82,149.6c-28.02,144.89,11.66,293.3,230.82,295.68,219.1-2.39,258.85-150.79,230.76-295.68-28.02-144.89-230.76-149.6-230.76-149.6h0Z"/>
      <path class="cls-2" d="m273.19,64.98s-35.91.86-79.57,12.59c8.22,26.04,26.77,70.03,59.1,73.34h40.88c32.33-3.31,50.95-47.3,59.16-73.34-43.66-11.73-79.57-12.59-79.57-12.59h0Z"/>
      <path class="cls-1" d="m502.62,208.22c14.11,6.03,38.16,18.95,38.16,31.47,0,0,17.36,126.14-38.36,126.74h0c12.99-46.31,11.73-99.31,1.52-151.85-.4-2.19-.86-4.31-1.33-6.36h0Z"/>
      <path class="cls-2" d="m543.23,288.91c-.93,35.44-8.81,77.18-40.81,77.51h0c5.63-20.07,8.61-41.47,9.28-63.54,13.25-3.78,23.52-8.75,31.54-13.98h0Z"/>
      <path class="cls-1" d="m494.6,209.34s1.79-106.93-83.54-154.9c0,0-53.13,1.79-47.9-36.77,5.23-38.56,60.75-4.7,62.54,13.71-1.46,7.88,136.15,116.6,75.92,201.87l-7.02-23.92Z"/>
      <path class="cls-1" d="m43.76,208.22c-14.11,6.03-38.16,18.95-38.16,31.47,0,0-17.42,126.14,38.29,126.74h.07c-12.99-46.31-11.73-99.31-1.59-151.85.4-2.19.86-4.31,1.39-6.36h0Z"/>
      <path class="cls-2" d="m3.08,288.91c.93,35.44,8.88,77.18,40.81,77.51h.07c-5.63-20.07-8.61-41.47-9.34-63.54-13.18-3.78-23.52-8.75-31.54-13.98h0Z"/>
      <path class="cls-1" d="m51.71,209.34s-1.72-106.93,83.54-154.9c0,0,53.2,1.79,47.97-36.77-5.3-38.56-60.82-4.7-62.54,13.71,1.46,7.88-136.15,116.6-75.99,201.87l7.02-23.92Z"/>
      <path class="cls-1" d="m203.62,103.74c10.34,22.26,26.3,44.85,49.09,47.17h40.88c22.86-2.32,38.82-24.91,49.16-47.17-29.88-8.02-56.12-10.93-69.56-11.99-13.52,1.06-39.68,3.98-69.56,11.99h0Z"/>
      <rect class="cls-4" x="83.24" y="233.64" width="379.82" height="128.82" rx="54.35" ry="54.35"/>
      <path class="cls-6" d="m169.44,243.73h0c16.1,0,29.22,13.12,29.22,29.22v50.22c0,16.1-13.12,29.22-29.22,29.22h0c-16.03,0-29.22-13.12-29.22-29.22v-50.22c0-16.1,13.18-29.22,29.22-29.22h0Z"/>
      <path class="cls-6" d="m376.87,243.73h0c-16.03,0-29.22,13.12-29.22,29.22v50.22c0,16.1,13.18,29.22,29.22,29.22h0c16.1,0,29.22-13.12,29.22-29.22v-50.22c0-16.1-13.12-29.22-29.22-29.22h0Z"/>
      <path class="cls-2" d="m350.5,260.55c-1.79,3.78-2.85,7.95-2.85,12.39v50.22c0,16.1,13.18,29.22,29.22,29.22h0c4.44,0,8.68-.99,12.46-2.78,1.79-3.78,2.78-7.95,2.78-12.39v-50.22c0-16.1-13.18-29.22-29.22-29.22h0c-4.44,0-8.68.99-12.39,2.78h0Z"/>
      <path class="cls-2" d="m195.87,260.55c1.79,3.78,2.78,7.95,2.78,12.39v50.22c0,16.1-13.12,29.22-29.22,29.22h0c-4.44,0-8.61-.99-12.39-2.78-1.79-3.78-2.78-7.95-2.78-12.39v-50.22c0-16.1,13.12-29.22,29.22-29.22h0c4.44,0,8.61.99,12.39,2.78h0Z"/>
    </g>
    <path class="cls-5" d="m28.49,582.62s11.98,55.19,83.82,58.32c-6.2,29.69-20.48,59.5-25.2,85.65-1.59,8.56-9.92,55.66-38.01,68.71-28.1,12.99-53.65-52.59-48.4-86.41,0,0,29.63-99.46,27.8-126.26h0Z"/>
    <path class="cls-7" d="m28.49,582.62s11.98,55.19,83.82,58.32c-4.49,21.54-13.22,43.09-19.48,63.28-1.95-31.87-8.38-48.22-8.38-48.22-28.57-5.9-47.69-20.54-60.5-37.36,3.13-15.23,5.08-28.45,4.54-36.01h0Z"/>
    <path class="cls-1" d="m128.01,505.17s-88.36-15.82-103.77,52.59c-15.41,68.41,58.73,95.56,90.72,87.06,0,0,58.14-105.71,56.96-110.26-1.18-4.54-43.91-29.39-43.91-29.39h0Z"/>
    <path class="cls-2" d="m88.7,720.32c-.83,2.83-1.42,5.02-1.59,6.26l-.18.94c-9.62-5.9-32.7-14.76-86.47-17.29.06-.47.12-.89.24-1.36,0,0,.89-3.07,2.36-8.26,25.09.35,62.69,3.78,85.65,19.71h0Z"/>
    <path class="cls-5" d="m512.21,571.56s-11.98,55.19-83.82,58.32c6.2,29.69,20.48,59.5,25.2,85.65,1.59,8.56,9.92,55.66,38.01,68.71,28.1,12.99,53.65-52.59,48.4-86.41,0,0-29.63-99.46-27.8-126.26h0Z"/>
    <path class="cls-1" d="m412.69,494.12s88.36-15.82,103.77,52.59c15.41,68.41-58.73,95.56-90.72,87.06,0,0-58.14-105.71-56.96-110.26,1.18-4.54,43.91-29.39,43.91-29.39h0Z"/>
    <path class="cls-2" d="m452,709.27c.83,2.83,1.42,5.02,1.59,6.26l.18.94c9.62-5.9,32.7-14.76,86.47-17.29-.06-.47-.12-.89-.24-1.36,0,0-.89-3.07-2.36-8.26-25.09.35-62.69,3.78-85.65,19.71h0Z"/>
    <g>
      <path class="cls-5" d="m178.95,496.64s-65.82,19.75-65.37,90.57c.11,12.51,1.52,28.95,4.43,47.47,13.41,85.8,58.92,216.43,155.21,214.8,96.23,1.63,141.8-129,155.21-214.8,2.92-18.52,4.32-34.96,4.38-47.47.5-70.81-65.32-90.57-65.32-90.57-30.19,25.19-94.27,19.3-94.27,19.3,0,0-64.08,5.89-94.27-19.3h0Z"/>
      <path class="cls-7" d="m163.29,503.59c-10.1,5.56-23.23,14.87-33.44,29.29,12.79,16.55,48.31,44.05,143.37,45.06,95-1.01,130.52-28.51,143.37-45.06-10.21-14.42-23.34-23.74-33.44-29.29l-32.38,2.92c-32.38,13.58-77.55,9.43-77.55,9.43,0,0-45.23,4.15-77.55-9.43l-32.38-2.92Z"/>
    </g>
  </g>
</svg>