<?xml version="1.0" encoding="UTF-8"?>
<svg id="Layer_2" data-name="Layer 2" xmlns="http://www.w3.org/2000/svg" xmlns:xlink="http://www.w3.org/1999/xlink" viewBox="0 0 2266.88 832.02">
  <defs>
    <style>
      .cls-1 {
        font-size: 300.63px;
      }

      .cls-1, .cls-2 {
        fill: #fff;
        font-family: Kanit-SemiBold, Kanit;
        font-weight: 600;
      }

      .cls-3 {
        letter-spacing: -.06em;
      }

      .cls-4 {
        letter-spacing: -.08em;
      }

      .cls-5 {
        letter-spacing: -.05em;
      }

      .cls-2 {
        font-size: 200px;
      }

      .cls-6 {
        fill: #e77817;
        stroke: #231f20;
        stroke-miterlimit: 10;
        stroke-width: 3px;
      }
    </style>
  </defs>
  <g id="Layer_1-2" data-name="Layer 1">
    <path class="cls-6" d="m805.77,233.99c-13.37-11.14-18.89-12.15-17.15,16.67-1,21.61-67.93,46.26-65.73,38.58,6.83-23.81,8.29-67.48-10.26-83.27-23.04-19.61-24.81-15.21-30.78,8.68-3.55,14.21-24.03,31.57-45.78,31.57-15.39,0-21.8-7.38-27.62-18.55-5.44-10.44-5.22-24.35-2.44-35.79,1.97-8.14,3.84-17.04,3.23-19.46-1.18-4.74-30.73,10.23-40.65,15.79-19.73,11.05-51.3,54.46-46.17,46.57,5.13-7.89,1.97-33.94-9.47-47.75-6.71-9.08-28.81-20.52-43.8-33.15-9.52-8.02-12.23-15.79-12.23-15.79,0,0-2.71,7.77-12.23,15.79-15,12.63-37.1,24.07-43.81,33.15-11.44,13.81-14.6,39.86-9.47,47.75,5.13,7.89-26.44-35.52-46.17-46.57-9.91-5.55-39.46-20.52-40.65-15.79-.6,2.42,1.26,11.33,3.23,19.46,2.77,11.44,3,25.35-2.44,35.79-5.83,11.17-12.23,18.55-27.62,18.55-21.75,0-42.23-17.36-45.78-31.57-5.97-23.89-7.74-28.29-30.78-8.68-18.55,15.79-17.09,59.46-10.26,83.27,2.2,7.68-64.72-16.97-65.73-38.58,1.74-28.82-3.78-27.82-17.15-16.67-23.15,19.3-54.86,42.62-40.25,66.3,14.6,23.68,38.28,48.94,55.25,52.09s286.9,4.74,286.9,4.74l46.96,29.2,46.96-29.2s269.93-1.58,286.9-4.74,40.65-28.41,55.25-52.09-17.1-47-40.25-66.3Z"/>
    <image width="763" height="1037" transform="translate(1810.15) scale(.6)" xlink:href="../../../../../Users/rizky/Downloads/Lambang_Kabupaten_Tanggamus.png"/>
    <text class="cls-1" transform="translate(0 570.07)"><tspan x="0" y="0">PEMERIN</tspan><tspan class="cls-4" x="1215.43" y="0">T</tspan><tspan x="1361.54" y="0">AH</tspan></text>
    <text class="cls-2" transform="translate(2.94 758.02)"><tspan x="0" y="0">PE</tspan><tspan class="cls-3" x="231.59" y="0">K</tspan><tspan x="351.2" y="0">ON NEGERI </tspan><tspan class="cls-5" x="1376.38" y="0">A</tspan><tspan x="1510.98" y="0">GUNG</tspan></text>
  </g>
</svg>