<?xml version="1.0" encoding="UTF-8"?>
<svg id="Layer_2" data-name="Layer 2" xmlns="http://www.w3.org/2000/svg" viewBox="0 0 85 82.59">
  <defs>
    <style>
      .cls-1 {
        fill: #000000;
        fill-rule: evenodd;
        stroke-width: 0px;
      }
    </style>
  </defs>
  <g id="Layer_1-2" data-name="Layer 1">
    <path class="cls-1" d="m83.1,38.26L4.84.34C2.6-.74,0,.89,0,3.37l12.87,23.92c.47.87.31,1.96-.42,2.63-2.95,2.72-10.86,7.7-9.53,7.75l54.15,2.27c1.72.07,1.72,2.62,0,2.7l-53.72,2.26c-1.43.06,4.82,3.94,7.88,6.62,1.07.94,1.37,2.49.73,3.76L0,79.22c0,2.49,2.6,4.12,4.84,3.03l78.26-37.92c2.53-1.23,2.53-4.84,0-6.07Z"/>
  </g>
</svg>